<svg width="586" height="449" viewBox="0 0 586 449" fill="none" xmlns="http://www.w3.org/2000/svg">
<circle cx="361.292" cy="224.5" r="216.5" stroke="white" style="stroke:white;stroke-opacity:1;" stroke-width="16"/>
<mask id="path-2-inside-1_5_4" fill="white">
<path d="M327.342 446.482C380.226 438.494 428.52 411.889 463.53 371.456C498.54 331.024 517.965 279.421 518.308 225.939C518.65 172.457 499.888 120.609 465.4 79.7314C430.911 38.8536 382.962 11.6314 330.185 2.96613L327.756 17.759C377.009 25.8456 421.756 51.2501 453.942 89.3983C486.128 127.546 503.637 175.932 503.317 225.843C502.997 275.754 484.869 323.911 452.197 361.643C419.525 399.376 374.455 424.205 325.103 431.659L327.342 446.482Z"/>
</mask>
<path d="M327.342 446.482C380.226 438.494 428.52 411.889 463.53 371.456C498.54 331.024 517.965 279.421 518.308 225.939C518.65 172.457 499.888 120.609 465.4 79.7314C430.911 38.8536 382.962 11.6314 330.185 2.96613L327.756 17.759C377.009 25.8456 421.756 51.2501 453.942 89.3983C486.128 127.546 503.637 175.932 503.317 225.843C502.997 275.754 484.869 323.911 452.197 361.643C419.525 399.376 374.455 424.205 325.103 431.659L327.342 446.482Z" stroke="white" style="stroke:white;stroke-opacity:1;" stroke-width="32" mask="url(#path-2-inside-1_5_4)"/>
<mask id="path-3-inside-2_5_4" fill="white">
<path d="M294.676 437.75C339.678 422.941 378.84 394.275 406.56 355.856C434.279 317.437 449.134 271.234 448.999 223.859C448.864 176.484 433.745 130.366 405.807 92.1059C377.868 53.8457 338.542 25.4045 293.457 10.8528L287.676 28.7643C328.981 42.0961 365.01 68.1529 390.606 103.205C416.203 138.258 430.054 180.509 430.178 223.913C430.302 267.316 416.692 309.646 391.296 344.844C365.901 380.042 330.021 406.304 288.793 419.872L294.676 437.75Z"/>
</mask>
<path d="M294.676 437.75C339.678 422.941 378.84 394.275 406.56 355.856C434.279 317.437 449.134 271.234 448.999 223.859C448.864 176.484 433.745 130.366 405.807 92.1059C377.868 53.8457 338.542 25.4045 293.457 10.8528L287.676 28.7643C328.981 42.0961 365.01 68.1529 390.606 103.205C416.203 138.258 430.054 180.509 430.178 223.913C430.302 267.316 416.692 309.646 391.296 344.844C365.901 380.042 330.021 406.304 288.793 419.872L294.676 437.75Z" stroke="white" style="stroke:white;stroke-opacity:1;" stroke-width="32" mask="url(#path-3-inside-2_5_4)"/>
</svg>
